<svg id="Layer_1" data-name="Layer 1" xmlns="http://www.w3.org/2000/svg" viewBox="0 0 77.21 33.79"><defs><style>.cls-1{fill:#ed2224;}</style></defs><title>circle</title><path class="cls-1" d="M53,9.31C47.46,4.63,38.38,5.2,31.62,5.67A52.54,52.54,0,0,0,8.08,13.15C-3.87,20.32,20,32.94,25.79,35.07,41.36,40.82,59.17,40.88,74,32.86c4.44-2.4,8.85-6.1,7.9-11.7-1-6.07-7.13-9.68-12.61-10.93C49.64,5.74,30.48,12.87,14.31,23.64c-.4.26,0,.91.38.64C28.71,15,44.87,8.17,62.07,9.86c4.17.41,8.94,1,12.61,3.16,5.4,3.17,9,10.09,4.12,15.47-5,5.58-14.6,8.16-21.75,9.32-16.12,2.62-34.92-2-47-13.21C8.75,23.41,7,21.93,6.32,20.32c-2-5,1.66-6.32,4.5-7.77a54.43,54.43,0,0,1,13.33-5.2C32,5.68,45.92,4.3,52.48,9.84c.37.31.9-.21.53-.53Z" transform="translate(-4.78 -5.36)"/></svg>