<svg id="Layer_1" data-name="Layer 1" xmlns="http://www.w3.org/2000/svg" viewBox="0 0 642.38 332.35"><defs><style>.cls-1{font-size:20px;font-family:Helvetica-Light, Helvetica;font-weight:300;}.cls-2{fill:red;}</style></defs><title>web-logo</title><text class="cls-1" transform="translate(339.1 17.18)">36pt</text><path d="M112.19,138c0-7.61,4.58-12.26,10.84-12.26a9.19,9.19,0,0,1,6.81,2.91l-1.64,2a6.71,6.71,0,0,0-5.09-2.23c-4.76,0-7.82,3.66-7.82,9.55s2.81,9.66,7.85,9.66a6.43,6.43,0,0,0,4.26-1.39v-6.15h-5v-2.49h7.75v9.93a10.1,10.1,0,0,1-7.28,2.74C116.62,150.23,112.19,145.68,112.19,138Z" transform="translate(-15.23 -26.08)"/><path d="M134.41,145.25c0-3.81,3.29-5.71,10.75-6.52,0-2.26-.76-4.42-3.62-4.42a9.6,9.6,0,0,0-5.21,1.87l-1.16-2a12.88,12.88,0,0,1,6.87-2.28c4.27,0,6.08,2.84,6.08,7.19V149.8h-2.45l-.25-2.1h-.1a9.26,9.26,0,0,1-5.78,2.53C136.61,150.23,134.41,148.41,134.41,145.25Zm10.75.28v-4.86c-5.87.7-7.85,2.14-7.85,4.38,0,2,1.35,2.79,3.07,2.79S143.46,147,145.16,145.53Z" transform="translate(-15.23 -26.08)"/><path d="M153.64,132.3h2.44l.25,3.19h.1c1.22-2.22,3-3.62,5-3.62a4,4,0,0,1,1.86.36l-.55,2.59a5.09,5.09,0,0,0-1.7-.28c-1.47,0-3.24,1.06-4.42,4V149.8h-3Z" transform="translate(-15.23 -26.08)"/><path d="M165.27,157l.58-2.36a4.56,4.56,0,0,0,1.34.26c2,0,3.22-1.59,3.94-3.76l.4-1.29-7-17.53h3.05l3.57,9.69c.55,1.51,1.14,3.31,1.71,4.93H173c.5-1.6,1-3.39,1.47-4.93l3.12-9.69h2.9l-6.59,18.94c-1.24,3.47-3,6.1-6.55,6.1A5.85,5.85,0,0,1,165.27,157Z" transform="translate(-15.23 -26.08)"/><path d="M191.32,126.17h13.62v2.55H194.32v8h9v2.55h-9V149.8h-3Z" transform="translate(-15.23 -26.08)"/><path d="M208.1,132.3h2.45l.25,3.19h.1c1.22-2.22,3-3.62,5-3.62a4.08,4.08,0,0,1,1.87.36l-.55,2.59a5.14,5.14,0,0,0-1.7-.28c-1.48,0-3.24,1.06-4.42,4V149.8h-3Z" transform="translate(-15.23 -26.08)"/><path d="M218.65,145.25c0-3.81,3.29-5.71,10.74-6.52,0-2.26-.75-4.42-3.61-4.42a9.66,9.66,0,0,0-5.22,1.87l-1.15-2a12.88,12.88,0,0,1,6.87-2.28c4.27,0,6.07,2.84,6.07,7.19V149.8h-2.44l-.25-2.1h-.1a9.28,9.28,0,0,1-5.79,2.53A4.76,4.76,0,0,1,218.65,145.25Zm10.74.28v-4.86c-5.86.7-7.84,2.14-7.84,4.38,0,2,1.35,2.79,3.06,2.79S227.7,147,229.39,145.53Z" transform="translate(-15.23 -26.08)"/><path d="M237.88,132.3h2.44l.25,2.52h.1c1.67-1.64,3.47-2.95,5.87-2.95,3.69,0,5.34,2.38,5.34,6.84V149.8h-3V139.09c0-3.26-1-4.65-3.3-4.65-1.79,0-3,.91-4.78,2.69V149.8h-3Z" transform="translate(-15.23 -26.08)"/><path d="M257.57,124.15h2.91v17.37h.09L268,132.3h3.29l-5.87,7,6.64,10.47h-3.24l-5.1-8.41-3.28,3.81v4.6h-2.91Z" transform="translate(-15.23 -26.08)"/><path d="M273.45,147.8l1.46-2a7.89,7.89,0,0,0,5.16,2.07c2.3,0,3.44-1.22,3.44-2.72,0-1.8-2.06-2.59-4-3.31-2.45-.9-5.22-2.1-5.22-5.06,0-2.8,2.25-5,6-5a8.89,8.89,0,0,1,5.44,2l-1.42,1.9a6.58,6.58,0,0,0-4-1.56c-2.2,0-3.22,1.18-3.22,2.51,0,1.67,1.9,2.3,3.88,3,2.53.95,5.34,2,5.34,5.31,0,2.83-2.25,5.2-6.38,5.2A10.52,10.52,0,0,1,273.45,147.8Z" transform="translate(-15.23 -26.08)"/><path d="M297.13,126.79a2,2,0,0,1,4.09,0,2,2,0,0,1-4.09,0Zm.54,5.51h3v17.5h-3Z" transform="translate(-15.23 -26.08)"/><path d="M304.59,147.8l1.46-2a7.89,7.89,0,0,0,5.16,2.07c2.3,0,3.44-1.22,3.44-2.72,0-1.8-2.06-2.59-4-3.31-2.45-.9-5.22-2.1-5.22-5.06,0-2.8,2.24-5,6-5a8.89,8.89,0,0,1,5.44,2l-1.42,1.9a6.58,6.58,0,0,0-4-1.56c-2.2,0-3.22,1.18-3.22,2.51,0,1.67,1.9,2.3,3.88,3,2.53.95,5.34,2,5.34,5.31,0,2.83-2.25,5.2-6.38,5.2A10.52,10.52,0,0,1,304.59,147.8Z" transform="translate(-15.23 -26.08)"/><path d="M327.73,145.25c0-3.81,3.29-5.71,10.74-6.52,0-2.26-.75-4.42-3.61-4.42a9.66,9.66,0,0,0-5.22,1.87l-1.15-2a12.88,12.88,0,0,1,6.87-2.28c4.27,0,6.07,2.84,6.07,7.19V149.8H339l-.25-2.1h-.1a9.28,9.28,0,0,1-5.79,2.53A4.76,4.76,0,0,1,327.73,145.25Zm10.74.28v-4.86c-5.86.7-7.84,2.14-7.84,4.38,0,2,1.35,2.79,3.06,2.79S336.78,147,338.47,145.53Z" transform="translate(-15.23 -26.08)"/><path d="M352.83,153.16a4.92,4.92,0,0,1,2.56-4v-.14a3.25,3.25,0,0,1-1.56-2.87,4.22,4.22,0,0,1,1.92-3.25v-.14a6.08,6.08,0,0,1-2.26-4.7c0-3.83,3-6.23,6.56-6.23a7.11,7.11,0,0,1,2.47.43h6.11v2.28H365a5.07,5.07,0,0,1,1.42,3.6c0,3.75-2.83,6.07-6.41,6.07a6.14,6.14,0,0,1-2.6-.6,2.55,2.55,0,0,0-1.12,2.07c0,1.11.72,1.9,3.07,1.9h3.4c4.07,0,6.12,1.28,6.12,4.18,0,3.25-3.44,6-8.85,6C355.78,157.85,352.83,156.17,352.83,153.16Zm13.19-.92c0-1.62-1.23-2.17-3.53-2.17h-3a9.83,9.83,0,0,1-2.27-.26,3.65,3.65,0,0,0-1.79,2.93c0,1.88,1.9,3.07,5.08,3.07S366,154.07,366,152.24Zm-2.25-14.14c0-2.54-1.65-4.09-3.72-4.09s-3.71,1.52-3.71,4.09,1.7,4.16,3.71,4.16S363.77,140.65,363.77,138.1Z" transform="translate(-15.23 -26.08)"/><path d="M372.3,132.3h2.45l.25,3.19h.09c1.22-2.22,3-3.62,5-3.62a4.11,4.11,0,0,1,1.87.36l-.56,2.59a5.08,5.08,0,0,0-1.69-.28c-1.48,0-3.25,1.06-4.43,4V149.8h-3Z" transform="translate(-15.23 -26.08)"/><path d="M382.84,145.25c0-3.81,3.29-5.71,10.75-6.52,0-2.26-.76-4.42-3.61-4.42a9.6,9.6,0,0,0-5.22,1.87l-1.16-2a12.91,12.91,0,0,1,6.87-2.28c4.27,0,6.08,2.84,6.08,7.19V149.8H394.1l-.25-2.1h-.09a9.3,9.3,0,0,1-5.79,2.53C385,150.23,382.84,148.41,382.84,145.25Zm10.75.28v-4.86c-5.86.7-7.85,2.14-7.85,4.38,0,2,1.35,2.79,3.07,2.79S391.89,147,393.59,145.53Z" transform="translate(-15.23 -26.08)"/><path d="M402.07,132.3h2.45l.25,2h.1a9.17,9.17,0,0,1,5.57-2.45c4.52,0,6.94,3.51,6.94,8.91,0,6-3.58,9.45-7.58,9.45a8,8,0,0,1-4.85-2l.08,3.06v5.92h-3Zm12.25,8.51c0-3.86-1.32-6.45-4.61-6.45-1.48,0-3,.81-4.68,2.39v9.17a6.86,6.86,0,0,0,4.26,1.82C412.19,147.74,414.32,145.13,414.32,140.81Z" transform="translate(-15.23 -26.08)"/><path d="M421.91,124.15h3v7l-.11,3.59c1.63-1.58,3.41-2.89,5.81-2.89,3.69,0,5.34,2.38,5.34,6.84V149.8h-3V139.09c0-3.26-1-4.65-3.3-4.65-1.79,0-3,.91-4.78,2.69V149.8h-3Z" transform="translate(-15.23 -26.08)"/><path d="M441,126.79a2,2,0,0,1,4.09,0,2,2,0,0,1-4.09,0Zm.54,5.51h3v17.5h-3Z" transform="translate(-15.23 -26.08)"/><path d="M449.05,141.07c0-5.84,3.94-9.2,8.41-9.2a7.33,7.33,0,0,1,5.12,2l-1.51,2a5.08,5.08,0,0,0-3.47-1.55c-3.17,0-5.49,2.73-5.49,6.74s2.19,6.69,5.41,6.69a6.26,6.26,0,0,0,4.1-1.74l1.29,2a8.47,8.47,0,0,1-5.66,2.23C452.6,150.23,449.05,146.86,449.05,141.07Z" transform="translate(-15.23 -26.08)"/><path d="M472.71,141.07c0-5.68,3.59-9.2,7.58-9.2a7.18,7.18,0,0,1,4.9,2l-.13-3v-6.74h3V149.8h-2.45l-.25-2.07h-.1a7.74,7.74,0,0,1-5.31,2.5C475.55,150.23,472.71,146.9,472.71,141.07Zm12.35,4.28v-9.17a6.14,6.14,0,0,0-4.26-1.82c-2.8,0-5,2.7-5,6.68,0,4.2,1.74,6.7,4.81,6.7C482.2,147.74,483.6,147,485.06,145.35Z" transform="translate(-15.23 -26.08)"/><path d="M492.64,141.07c0-5.69,3.84-9.2,7.87-9.2,4.46,0,7,3.2,7,8.21a8.94,8.94,0,0,1-.14,1.68H495.57c.21,3.71,2.48,6.11,5.81,6.11a7.65,7.65,0,0,0,4.36-1.4l1.06,1.94a10.26,10.26,0,0,1-5.78,1.82C496.35,150.23,492.64,146.82,492.64,141.07Zm12.23-1.43c0-3.51-1.57-5.41-4.31-5.41-2.46,0-4.66,2-5,5.41Z" transform="translate(-15.23 -26.08)"/><path d="M509.86,147.8l1.46-2a7.89,7.89,0,0,0,5.16,2.07c2.3,0,3.44-1.22,3.44-2.72,0-1.8-2.06-2.59-4-3.31-2.45-.9-5.22-2.1-5.22-5.06,0-2.8,2.24-5,6-5a8.89,8.89,0,0,1,5.44,2l-1.42,1.9a6.58,6.58,0,0,0-4-1.56c-2.2,0-3.22,1.18-3.22,2.51,0,1.67,1.9,2.3,3.88,3,2.53.95,5.34,2,5.34,5.31,0,2.83-2.26,5.2-6.39,5.2A10.52,10.52,0,0,1,509.86,147.8Z" transform="translate(-15.23 -26.08)"/><path d="M526.34,126.79a2,2,0,0,1,4.09,0,2,2,0,0,1-4.09,0Zm.54,5.51h3v17.5h-3Z" transform="translate(-15.23 -26.08)"/><path d="M534.41,153.16a4.93,4.93,0,0,1,2.57-4v-.14a3.24,3.24,0,0,1-1.57-2.87,4.22,4.22,0,0,1,1.92-3.25v-.14a6.11,6.11,0,0,1-2.26-4.7c0-3.83,3-6.23,6.56-6.23a7.22,7.22,0,0,1,2.48.43h6.1v2.28h-3.59a5.07,5.07,0,0,1,1.42,3.6c0,3.75-2.83,6.07-6.41,6.07a6.14,6.14,0,0,1-2.6-.6,2.55,2.55,0,0,0-1.12,2.07c0,1.11.72,1.9,3.07,1.9h3.4c4.07,0,6.12,1.28,6.12,4.18,0,3.25-3.44,6-8.85,6C537.37,157.85,534.41,156.17,534.41,153.16Zm13.19-.92c0-1.62-1.23-2.17-3.53-2.17h-3a9.83,9.83,0,0,1-2.27-.26,3.65,3.65,0,0,0-1.79,2.93c0,1.88,1.9,3.07,5.08,3.07S547.6,154.07,547.6,152.24Zm-2.25-14.14c0-2.54-1.65-4.09-3.72-4.09s-3.71,1.52-3.71,4.09,1.7,4.16,3.71,4.16S545.35,140.65,545.35,138.1Z" transform="translate(-15.23 -26.08)"/><path d="M553.88,132.3h2.45l.25,2.52h.09c1.67-1.64,3.47-2.95,5.87-2.95,3.69,0,5.35,2.38,5.35,6.84V149.8h-3V139.09c0-3.26-1-4.65-3.3-4.65-1.79,0-3,.91-4.78,2.69V149.8h-3Z" transform="translate(-15.23 -26.08)"/><path d="M572.27,141.07c0-5.69,3.84-9.2,7.87-9.2,4.46,0,7,3.2,7,8.21a8.94,8.94,0,0,1-.14,1.68H575.2c.21,3.71,2.48,6.11,5.81,6.11a7.65,7.65,0,0,0,4.36-1.4l1.06,1.94a10.26,10.26,0,0,1-5.78,1.82C576,150.23,572.27,146.82,572.27,141.07Zm12.23-1.43c0-3.51-1.57-5.41-4.31-5.41-2.46,0-4.66,2-5,5.41Z" transform="translate(-15.23 -26.08)"/><path d="M591.43,132.3h2.44l.25,3.19h.1c1.22-2.22,3-3.62,5-3.62a4,4,0,0,1,1.86.36l-.55,2.59a5.09,5.09,0,0,0-1.7-.28c-1.47,0-3.24,1.06-4.42,4V149.8h-3Z" transform="translate(-15.23 -26.08)"/><path d="M600.62,154.17a4.86,4.86,0,0,0,3.24-4.46l-.32-2.66,1.45,2.16a1.82,1.82,0,0,1-1.5.62,2,2,0,0,1-2.14-2.07,2.06,2.06,0,0,1,2.19-2.06c1.58,0,2.52,1.31,2.52,3.48a7.13,7.13,0,0,1-4.72,6.73Z" transform="translate(-15.23 -26.08)"/><path d="M617,145.25c0-3.81,3.29-5.71,10.74-6.52,0-2.26-.75-4.42-3.61-4.42a9.66,9.66,0,0,0-5.22,1.87l-1.15-2a12.88,12.88,0,0,1,6.87-2.28c4.27,0,6.07,2.84,6.07,7.19V149.8h-2.44l-.25-2.1h-.1a9.28,9.28,0,0,1-5.79,2.53A4.76,4.76,0,0,1,617,145.25Zm10.74.28v-4.86c-5.86.7-7.84,2.14-7.84,4.38,0,2,1.35,2.79,3.06,2.79S626,147,627.69,145.53Z" transform="translate(-15.23 -26.08)"/><path d="M113.28,175.5h2.45l.25,2h.1a9.17,9.17,0,0,1,5.57-2.45c4.52,0,6.94,3.51,6.94,8.91,0,6-3.58,9.45-7.58,9.45a8,8,0,0,1-4.85-2l.08,3.06v5.92h-3ZM125.53,184c0-3.86-1.32-6.45-4.61-6.45-1.48,0-3,.81-4.68,2.39v9.17a6.86,6.86,0,0,0,4.26,1.82C123.4,190.94,125.53,188.33,125.53,184Z" transform="translate(-15.23 -26.08)"/><path d="M133.12,167.35h3v7L136,178c1.64-1.58,3.41-2.89,5.81-2.89,3.69,0,5.34,2.38,5.34,6.84V193h-3V182.29c0-3.26-1-4.65-3.3-4.65-1.79,0-3,.91-4.78,2.69V193h-3Z" transform="translate(-15.23 -26.08)"/><path d="M151.4,184.27c0-5.84,3.82-9.2,8.11-9.2s8.11,3.36,8.11,9.2-3.82,9.16-8.11,9.16S151.4,190.06,151.4,184.27Zm13.16,0c0-4-2-6.74-5.05-6.74s-5,2.73-5,6.74,2,6.69,5,6.69S164.56,188.28,164.56,184.27Z" transform="translate(-15.23 -26.08)"/><path d="M172.12,187.59v-9.68h-2.6v-2.24l2.73-.17.36-4.91h2.47v4.91h4.74v2.41h-4.74v9.73c0,2.14.69,3.38,2.71,3.38a6,6,0,0,0,2-.47l.57,2.23a10.61,10.61,0,0,1-3.24.65C173.38,193.43,172.12,191.07,172.12,187.59Z" transform="translate(-15.23 -26.08)"/><path d="M182,184.27c0-5.84,3.82-9.2,8.1-9.2s8.11,3.36,8.11,9.2-3.82,9.16-8.11,9.16S182,190.06,182,184.27Zm13.15,0c0-4-2-6.74-5.05-6.74s-5,2.73-5,6.74,2,6.69,5,6.69S195.12,188.28,195.12,184.27Z" transform="translate(-15.23 -26.08)"/><path d="M201.45,196.36a4.93,4.93,0,0,1,2.57-4v-.14a3.26,3.26,0,0,1-1.57-2.87,4.2,4.2,0,0,1,1.93-3.25V186a6.09,6.09,0,0,1-2.27-4.7c0-3.83,3-6.23,6.57-6.23a7.2,7.2,0,0,1,2.47.43h6.1v2.28h-3.59a5.07,5.07,0,0,1,1.42,3.6c0,3.75-2.83,6.07-6.4,6.07a6.15,6.15,0,0,1-2.61-.6,2.57,2.57,0,0,0-1.12,2.07c0,1.11.72,1.9,3.07,1.9h3.4c4.07,0,6.12,1.28,6.12,4.18,0,3.25-3.44,6.05-8.85,6.05C204.41,201.05,201.45,199.37,201.45,196.36Zm13.19-.92c0-1.62-1.23-2.17-3.53-2.17h-3a10,10,0,0,1-2.27-.26,3.65,3.65,0,0,0-1.79,2.93c0,1.88,1.9,3.07,5.08,3.07S214.64,197.27,214.64,195.44Zm-2.25-14.14c0-2.54-1.65-4.09-3.71-4.09S205,178.73,205,181.3s1.7,4.16,3.72,4.16S212.39,183.85,212.39,181.3Z" transform="translate(-15.23 -26.08)"/><path d="M220.92,175.5h2.45l.25,3.19h.1c1.21-2.22,3-3.62,5-3.62a4.11,4.11,0,0,1,1.87.36L230,178a5.08,5.08,0,0,0-1.69-.28c-1.48,0-3.25,1.06-4.43,4V193h-3Z" transform="translate(-15.23 -26.08)"/><path d="M231.46,188.45c0-3.81,3.29-5.71,10.75-6.52,0-2.26-.75-4.42-3.61-4.42a9.63,9.63,0,0,0-5.22,1.87l-1.16-2a12.91,12.91,0,0,1,6.88-2.28c4.27,0,6.07,2.84,6.07,7.19V193h-2.44l-.25-2.1h-.1a9.3,9.3,0,0,1-5.79,2.53C233.66,193.43,231.46,191.61,231.46,188.45Zm10.75.28v-4.86c-5.86.7-7.84,2.14-7.84,4.38,0,2,1.34,2.79,3.06,2.79S240.52,190.22,242.21,188.73Z" transform="translate(-15.23 -26.08)"/><path d="M250.69,175.5h2.45l.25,2h.1a9.17,9.17,0,0,1,5.57-2.45c4.52,0,6.94,3.51,6.94,8.91,0,6-3.58,9.45-7.58,9.45a8,8,0,0,1-4.85-2l.08,3.06v5.92h-3ZM262.94,184c0-3.86-1.32-6.45-4.61-6.45-1.48,0-3,.81-4.68,2.39v9.17a6.86,6.86,0,0,0,4.26,1.82C260.81,190.94,262.94,188.33,262.94,184Z" transform="translate(-15.23 -26.08)"/><path d="M270.53,167.35h3v7l-.11,3.59c1.64-1.58,3.41-2.89,5.81-2.89,3.69,0,5.34,2.38,5.34,6.84V193h-3V182.29c0-3.26-1-4.65-3.3-4.65-1.79,0-3,.91-4.78,2.69V193h-3Z" transform="translate(-15.23 -26.08)"/><path d="M288.81,184.27c0-5.69,3.84-9.2,7.87-9.2,4.46,0,7,3.2,7,8.21a8.94,8.94,0,0,1-.14,1.68H291.74c.21,3.71,2.48,6.11,5.81,6.11a7.65,7.65,0,0,0,4.36-1.4l1.06,1.94a10.26,10.26,0,0,1-5.78,1.82C292.53,193.43,288.81,190,288.81,184.27ZM301,182.84c0-3.51-1.57-5.41-4.31-5.41-2.46,0-4.66,2-5,5.41Z" transform="translate(-15.23 -26.08)"/><path d="M308,175.5h2.44l.25,3.19h.1c1.22-2.22,3-3.62,5-3.62a4,4,0,0,1,1.86.36l-.55,2.59a5.09,5.09,0,0,0-1.7-.28c-1.47,0-3.24,1.06-4.42,4V193h-3Z" transform="translate(-15.23 -26.08)"/><path d="M317.16,197.37a4.86,4.86,0,0,0,3.24-4.46l-.32-2.66,1.45,2.16a1.82,1.82,0,0,1-1.5.62,2,2,0,0,1-2.14-2.07,2.06,2.06,0,0,1,2.19-2.06c1.58,0,2.52,1.31,2.52,3.48a7.13,7.13,0,0,1-4.72,6.73Z" transform="translate(-15.23 -26.08)"/><path d="M333.49,188.45c0-3.81,3.29-5.71,10.74-6.52,0-2.26-.75-4.42-3.61-4.42a9.66,9.66,0,0,0-5.22,1.87l-1.15-2a12.88,12.88,0,0,1,6.87-2.28c4.27,0,6.07,2.84,6.07,7.19V193h-2.44l-.25-2.1h-.1a9.28,9.28,0,0,1-5.79,2.53A4.76,4.76,0,0,1,333.49,188.45Zm10.74.28v-4.86c-5.86.7-7.84,2.14-7.84,4.38,0,2,1.35,2.79,3.06,2.79S342.54,190.22,344.23,188.73Z" transform="translate(-15.23 -26.08)"/><path d="M352.71,175.5h2.45l.25,2.52h.1c1.67-1.64,3.47-3,5.87-3,3.69,0,5.34,2.38,5.34,6.84V193h-3V182.29c0-3.26-1-4.65-3.3-4.65-1.79,0-3,.91-4.78,2.69V193h-3Z" transform="translate(-15.23 -26.08)"/><path d="M371.16,184.27c0-5.68,3.58-9.2,7.57-9.2a7.14,7.14,0,0,1,4.9,2l-.12-3v-6.74h3V193H384l-.25-2.07h-.09a7.76,7.76,0,0,1-5.31,2.5C374,193.43,371.16,190.1,371.16,184.27Zm12.35,4.28v-9.17a6.16,6.16,0,0,0-4.27-1.82c-2.8,0-5,2.7-5,6.68,0,4.2,1.74,6.7,4.8,6.7C380.64,190.94,382,190.15,383.51,188.55Z" transform="translate(-15.23 -26.08)"/><path d="M398.5,188.45c0-3.81,3.29-5.71,10.75-6.52,0-2.26-.75-4.42-3.61-4.42a9.6,9.6,0,0,0-5.22,1.87l-1.16-2a12.91,12.91,0,0,1,6.87-2.28c4.27,0,6.08,2.84,6.08,7.19V193h-2.45l-.25-2.1h-.09a9.3,9.3,0,0,1-5.79,2.53C400.7,193.43,398.5,191.61,398.5,188.45Zm10.75.28v-4.86c-5.86.7-7.85,2.14-7.85,4.38,0,2,1.35,2.79,3.07,2.79S407.55,190.22,409.25,188.73Z" transform="translate(-15.23 -26.08)"/><path d="M423,175.67l2.51-.17h6.54v2.41h-9Zm2.38-2.93c0-3.56,1.62-5.82,5.12-5.82a7.8,7.8,0,0,1,2.91.6l-.62,2.26a5,5,0,0,0-2-.45c-1.65,0-2.46,1.16-2.46,3.42V193h-3Z" transform="translate(-15.23 -26.08)"/><path d="M435.21,186.59V175.5h3v10.7c0,3.26,1,4.66,3.3,4.66,1.79,0,3-.89,4.68-3V175.5h3V193h-2.45l-.25-2.74h-.1c-1.62,1.91-3.37,3.17-5.77,3.17C436.86,193.43,435.21,191.05,435.21,186.59Z" transform="translate(-15.23 -26.08)"/><path d="M455,189.48V167.35h3V189.7c0,.9.39,1.26.82,1.26a2.63,2.63,0,0,0,.65-.07l.4,2.26a4.77,4.77,0,0,1-1.7.28C455.94,193.43,455,192,455,189.48Z" transform="translate(-15.23 -26.08)"/><path d="M464.21,189.48V167.35h3V189.7c0,.9.39,1.26.82,1.26a2.63,2.63,0,0,0,.65-.07l.4,2.26a4.77,4.77,0,0,1-1.7.28C465.12,193.43,464.21,192,464.21,189.48Z" transform="translate(-15.23 -26.08)"/><path d="M478.65,191l1.46-1.95a7.89,7.89,0,0,0,5.16,2.07c2.3,0,3.44-1.22,3.44-2.72,0-1.8-2.07-2.59-4-3.31-2.45-.9-5.22-2.1-5.22-5.06,0-2.8,2.24-5,6-5a8.92,8.92,0,0,1,5.44,2l-1.42,1.9a6.6,6.6,0,0,0-4-1.56c-2.2,0-3.22,1.18-3.22,2.51,0,1.67,1.9,2.3,3.88,3,2.53,1,5.34,2,5.34,5.31,0,2.83-2.26,5.2-6.39,5.2A10.46,10.46,0,0,1,478.65,191Z" transform="translate(-15.23 -26.08)"/><path d="M495.47,187.59v-9.68h-2.6v-2.24l2.73-.17.36-4.91h2.47v4.91h4.74v2.41h-4.74v9.73c0,2.14.69,3.38,2.71,3.38a6,6,0,0,0,2-.47l.57,2.23a10.61,10.61,0,0,1-3.25.65C496.73,193.43,495.47,191.07,495.47,187.59Z" transform="translate(-15.23 -26.08)"/><path d="M505.28,188.45c0-3.81,3.29-5.71,10.74-6.52,0-2.26-.75-4.42-3.61-4.42a9.6,9.6,0,0,0-5.21,1.87l-1.16-2a12.88,12.88,0,0,1,6.87-2.28c4.27,0,6.08,2.84,6.08,7.19V193h-2.45l-.25-2.1h-.1a9.28,9.28,0,0,1-5.78,2.53C507.48,193.43,505.28,191.61,505.28,188.45Zm10.74.28v-4.86c-5.86.7-7.84,2.14-7.84,4.38,0,2,1.35,2.79,3.07,2.79S514.33,190.22,516,188.73Z" transform="translate(-15.23 -26.08)"/><path d="M523.21,184.27c0-5.84,3.94-9.2,8.41-9.2a7.33,7.33,0,0,1,5.12,2.05l-1.51,2a5.08,5.08,0,0,0-3.47-1.55c-3.17,0-5.49,2.73-5.49,6.74s2.19,6.69,5.41,6.69a6.3,6.3,0,0,0,4.11-1.74l1.28,2a8.47,8.47,0,0,1-5.66,2.23C526.76,193.43,523.21,190.06,523.21,184.27Z" transform="translate(-15.23 -26.08)"/><path d="M540.92,167.35h2.91v17.37h.1l7.47-9.22h3.28l-5.86,7L555.45,193h-3.24l-5.1-8.41-3.28,3.81V193h-2.91Z" transform="translate(-15.23 -26.08)"/><path d="M563.85,175.5h3l2.6,10.11c.37,1.66.7,3.23,1,4.88h.15c.38-1.65.76-3.25,1.19-4.88l2.7-10.11h2.89l2.73,10.11c.43,1.66.81,3.23,1.21,4.88h.15c.38-1.65.7-3.22,1.08-4.88l2.55-10.11H588L583.29,193h-3.61l-2.52-9.41c-.42-1.65-.76-3.26-1.18-5h-.15c-.37,1.78-.73,3.43-1.2,5.09L572.18,193h-3.46Z" transform="translate(-15.23 -26.08)"/><path d="M590.35,184.27c0-5.69,3.83-9.2,7.86-9.2,4.46,0,7,3.2,7,8.21a10,10,0,0,1-.13,1.68H593.27c.21,3.71,2.48,6.11,5.82,6.11a7.64,7.64,0,0,0,4.35-1.4l1.06,1.94a10.23,10.23,0,0,1-5.78,1.82C594.06,193.43,590.35,190,590.35,184.27Zm12.23-1.43c0-3.51-1.58-5.41-4.32-5.41-2.46,0-4.65,2-5,5.41Z" transform="translate(-15.23 -26.08)"/><path d="M612.24,191.19h-.1l-.27,1.81H609.5V167.35h3v7l-.1,3.13a8.84,8.84,0,0,1,5.5-2.43c4.52,0,6.95,3.51,6.95,8.9,0,6-3.58,9.46-7.58,9.46A7.82,7.82,0,0,1,612.24,191.19Zm9.51-7.18c0-3.86-1.32-6.45-4.61-6.45-1.48,0-3,.81-4.68,2.39v9.17a6.76,6.76,0,0,0,4.26,1.82C619.62,190.94,621.75,188.33,621.75,184Z" transform="translate(-15.23 -26.08)"/><path d="M112,227.47c0-5.68,3.58-9.2,7.57-9.2a7.18,7.18,0,0,1,4.9,2l-.13-3v-6.74h3V236.2H124.9l-.25-2.07h-.1a7.74,7.74,0,0,1-5.31,2.5C114.87,236.63,112,233.3,112,227.47Zm12.34,4.28v-9.17a6.14,6.14,0,0,0-4.26-1.82c-2.8,0-5,2.7-5,6.68,0,4.2,1.74,6.7,4.81,6.7C121.52,234.14,122.92,233.35,124.38,231.75Z" transform="translate(-15.23 -26.08)"/><path d="M132,227.47c0-5.69,3.84-9.2,7.87-9.2,4.46,0,7,3.2,7,8.21a8.94,8.94,0,0,1-.14,1.68H134.89c.21,3.71,2.48,6.11,5.81,6.11a7.65,7.65,0,0,0,4.36-1.4l1.06,1.94a10.26,10.26,0,0,1-5.78,1.82C135.67,236.63,132,233.22,132,227.47ZM144.19,226c0-3.51-1.57-5.41-4.31-5.41-2.46,0-4.66,2-5,5.41Z" transform="translate(-15.23 -26.08)"/><path d="M148.78,218.7h3.05l3.31,9.94c.52,1.71,1.09,3.49,1.61,5.16h.15c.52-1.67,1.09-3.45,1.61-5.16l3.31-9.94h2.9l-6.19,17.5h-3.44Z" transform="translate(-15.23 -26.08)"/><path d="M166.67,227.47c0-5.69,3.83-9.2,7.86-9.2,4.46,0,7,3.2,7,8.21a10,10,0,0,1-.13,1.68H169.59c.21,3.71,2.48,6.11,5.82,6.11a7.64,7.64,0,0,0,4.35-1.4l1.06,1.94a10.23,10.23,0,0,1-5.78,1.82C170.38,236.63,166.67,233.22,166.67,227.47ZM178.9,226c0-3.51-1.58-5.41-4.32-5.41-2.46,0-4.65,2-5,5.41Z" transform="translate(-15.23 -26.08)"/><path d="M185.82,232.68V210.55h3V232.9c0,.9.39,1.26.83,1.26a2.56,2.56,0,0,0,.64-.07l.41,2.26a4.79,4.79,0,0,1-1.71.28C186.73,236.63,185.82,235.21,185.82,232.68Z" transform="translate(-15.23 -26.08)"/><path d="M193.7,227.47c0-5.84,3.82-9.2,8.11-9.2s8.11,3.36,8.11,9.2-3.82,9.16-8.11,9.16S193.7,233.26,193.7,227.47Zm13.16,0c0-4-2-6.74-5.05-6.74s-5.05,2.73-5.05,6.74,2,6.69,5.05,6.69S206.86,231.48,206.86,227.47Z" transform="translate(-15.23 -26.08)"/><path d="M214.51,218.7H217l.25,2h.1a9.17,9.17,0,0,1,5.57-2.45c4.52,0,6.94,3.51,6.94,8.91,0,6-3.58,9.45-7.58,9.45a8,8,0,0,1-4.85-2l.08,3.06v5.92h-3Zm12.25,8.51c0-3.86-1.32-6.45-4.61-6.45-1.48,0-3,.81-4.68,2.39v9.17a6.86,6.86,0,0,0,4.26,1.82C224.63,234.14,226.76,231.53,226.76,227.21Z" transform="translate(-15.23 -26.08)"/><path d="M233.19,227.47c0-5.69,3.84-9.2,7.87-9.2,4.46,0,7,3.2,7,8.21a8.94,8.94,0,0,1-.14,1.68H236.12c.21,3.71,2.48,6.11,5.81,6.11a7.65,7.65,0,0,0,4.36-1.4l1.06,1.94a10.26,10.26,0,0,1-5.78,1.82C236.9,236.63,233.19,233.22,233.19,227.47ZM245.42,226c0-3.51-1.57-5.41-4.31-5.41-2.46,0-4.66,2-5,5.41Z" transform="translate(-15.23 -26.08)"/><path d="M252.35,218.7h2.44l.25,3.19h.1c1.22-2.22,3-3.62,5-3.62a4.07,4.07,0,0,1,1.86.36l-.55,2.59a5.14,5.14,0,0,0-1.7-.28c-1.47,0-3.24,1.06-4.42,4V236.2h-3Z" transform="translate(-15.23 -26.08)"/><path d="M262.18,234.39a2.14,2.14,0,1,1,2.14,2.24A2.16,2.16,0,0,1,262.18,234.39Z" transform="translate(-15.23 -26.08)"/><path class="cls-2" d="M530.75,78.44c-29.27,0-58.61-1.65-87.88-.54a606.51,606.51,0,0,0-84,9.53c-55,9.86-110,24.42-162.13,44.63C171.64,141.79,147.06,153,124,167a459.53,459.53,0,0,0-62.55,46.17c-18,15.6-33.25,33.34-42.1,55.72-3.7,9.37-6.07,20-2.08,29.63,3.08,7.44,8.94,13.36,15.26,18.17,14.61,11.12,32.71,18.12,50.54,21.86,28.51,6,56.81,12.33,85.78,15.69a636.13,636.13,0,0,0,87.05,4.06c6.55-.15,13.39.13,19.83-1,7.08-1.28,14.15-2.64,21.23-4l44.4-8.28c14-2.61,27.83-7.24,41.52-11.19q21.58-6.23,43-12.92c27.7-8.65,55.14-17.91,82.17-28.5A824.21,824.21,0,0,0,584,257.88c21.75-11.16,43.46-23.17,60.4-41.16,6.52-6.93,12.64-15.46,13.2-25.29.53-9.25-4.63-19-11-25.51a39.86,39.86,0,0,0-10.94-7.8c-6.15-3-12.35-6-18.53-8.93a303.73,303.73,0,0,0-37.45-15.06A390.62,390.62,0,0,0,499.5,116.6c-27.9-3-56-3.4-84-3.69-13.71-.14-27.42-.26-41.12-.59-1.93,0-1.93,3,0,3,53.86,1.31,108.43-1.1,161.51,9.86a349.48,349.48,0,0,1,76.44,25c5.51,2.57,10.78,5.7,16.3,8.22,5.19,2.36,10.1,4.29,14.4,8.2,8.11,7.37,13.8,19.37,10.52,30.28-3.14,10.5-11.77,18.74-19.78,25.76a184.5,184.5,0,0,1-29.57,21,681.19,681.19,0,0,1-70.74,35.11c-51.44,22.15-105,39-158.86,54.29-13.18,3.75-26.31,7.6-39.79,10.12l-40.54,7.56c-7.49,1.4-15.17,3.39-22.78,4-7.07.57-14.27.54-21.37.63q-20.36.25-40.69-.78c-28.27-1.44-56.63-4.5-84.35-10.32-22.42-4.71-45.83-7.67-67-16.73C43.11,321.16,23.1,311,18.87,293.72,16,281.83,22,268.94,27.4,258.65A125.82,125.82,0,0,1,48,230c17.23-18.11,37.77-33.82,58.3-47.95a408,408,0,0,1,67.5-37.29C222.53,123.33,274.31,108.51,326.24,97a731.66,731.66,0,0,1,81.88-13.64c27.2-2.82,54.28-2.91,81.59-2.43,13.68.23,27.36.47,41,.48a1.5,1.5,0,0,0,0-3Z" transform="translate(-15.23 -26.08)"/></svg>